<svg width="16" height="16" viewBox="0 0 16 16" fill="none" xmlns="http://www.w3.org/2000/svg">
<path d="M0.441406 15.5078C0.0214844 15.0977 0.03125 14.375 0.441406 13.9746L6.44727 7.95898L0.441406 1.95312C0.03125 1.55273 0.0214844 0.839844 0.441406 0.410156C0.861328 -0.00976562 1.57422 0 1.98438 0.410156L7.99023 6.41602L13.9961 0.410156C14.416 0 15.1094 0 15.5391 0.419922C15.9688 0.830078 15.959 1.54297 15.5488 1.95312L9.54297 7.95898L15.5488 13.9746C15.959 14.3848 15.959 15.0879 15.5391 15.5078C15.1191 15.9375 14.416 15.9277 13.9961 15.5176L7.99023 9.51172L1.98438 15.5176C1.57422 15.9277 0.871094 15.9277 0.441406 15.5078Z" fill="#0F2D35"/>
</svg>
