<svg xmlns="http://www.w3.org/2000/svg" width="20" height="20" viewBox="0 0 20 20" fill="none">
  <path fill-rule="evenodd" clip-rule="evenodd" d="M18.8599 0H1.10131C0.493073 0 0 0.494031 0 1.10345V18.8966C0 19.506 0.493073 20 1.10131 20H10.6689V12.2655H8.07054V9.23793H10.6689V7.01034C10.6689 4.42759 12.2452 3.02069 14.5442 3.02069C15.3189 3.019 16.0932 3.05813 16.8638 3.13793V5.83793H15.2807C14.0279 5.83793 13.7836 6.43103 13.7836 7.3069V9.23448H16.7778L16.3889 12.2621H13.7664V20H18.8599C19.4682 20 19.9612 19.506 19.9612 18.8966V1.10345C19.9612 0.494031 19.4682 0 18.8599 0Z" fill="white"/>
  <path fill-rule="evenodd" clip-rule="evenodd" d="M13.7664 19.9999V12.2654H16.3717L16.7606 9.23781H13.7664V7.31022C13.7664 6.43436 14.0107 5.84126 15.2635 5.84126H16.8638V3.13781C16.092 3.05789 15.3166 3.01875 14.5407 3.02057C12.2383 3.02057 10.6689 4.42746 10.6689 7.01022V9.23781H8.07053V12.2654H10.6689V19.9999H13.7664Z" fill="#003366"/>
</svg>