<svg xmlns="http://www.w3.org/2000/svg" width="20" height="20" viewBox="0 0 20 20" fill="none">
  <mask id="mask0_9006_13057" style="mask-type:luminance" maskUnits="userSpaceOnUse" x="0" y="0" width="20" height="20">
    <path fill-rule="evenodd" clip-rule="evenodd" d="M0 0H19.9549V19.9913H0V0Z" fill="white"/>
  </mask>
  <g mask="url(#mask0_9006_13057)">
    <path fill-rule="evenodd" clip-rule="evenodd" d="M9.97749 0C7.26775 0 6.92798 0.0115079 5.86377 0.0601587C4.80175 0.10869 4.07649 0.277698 3.44185 0.524841C2.78574 0.780278 2.22932 1.1221 1.67461 1.67786C1.11993 2.23365 0.778766 2.79115 0.523824 3.44853C0.27716 4.0844 0.10848 4.81107 0.0600421 5.87516C0.0114856 6.94143 0 7.28187 0 9.99687C0 12.7119 0.0114856 13.0523 0.0600421 14.1185C0.10848 15.1826 0.27716 15.9093 0.523824 16.5452C0.778766 17.2025 1.11993 17.76 1.67461 18.3158C2.22932 18.8716 2.78574 19.2134 3.44185 19.4689C4.07649 19.716 4.80175 19.885 5.86377 19.9336C6.92798 19.9822 7.26775 19.9937 9.97749 19.9937C12.6872 19.9937 13.027 19.9822 14.0912 19.9336C15.1532 19.885 15.8785 19.716 16.5131 19.4689C17.1692 19.2134 17.7256 18.8716 18.2803 18.3158C18.835 17.76 19.1761 17.2026 19.4312 16.5452C19.6778 15.9093 19.8465 15.1826 19.8949 14.1185C19.9435 13.0523 19.9549 12.7119 19.9549 9.99687C19.9549 7.28187 19.9435 6.94143 19.8949 5.87516C19.8465 4.81107 19.6778 4.0844 19.4312 3.44853C19.1761 2.79115 18.835 2.23365 18.2803 1.67786C17.7256 1.1221 17.1692 0.780278 16.5131 0.524841C15.8785 0.277698 15.1532 0.10869 14.0912 0.0601587C13.027 0.0115079 12.6872 0 9.97749 0ZM9.9775 1.80127C12.6416 1.80127 12.9571 1.81147 14.0092 1.85952C14.982 1.90405 15.5103 2.06686 15.8619 2.20377C16.3276 2.38512 16.66 2.60179 17.0092 2.95159C17.3583 3.30139 17.5745 3.6344 17.7555 4.10103C17.8921 4.45329 18.0547 4.98262 18.099 5.9573C18.147 7.01143 18.1572 7.32762 18.1572 9.9969C18.1572 12.6662 18.147 12.9823 18.099 14.0364C18.0547 15.0112 17.8921 15.5405 17.7555 15.8927C17.5745 16.3594 17.3583 16.6924 17.0092 17.0422C16.66 17.392 16.3276 17.6087 15.8619 17.79C15.5103 17.9269 14.982 18.0898 14.0092 18.1342C12.9573 18.1823 12.6418 18.1925 9.9775 18.1925C7.31319 18.1925 6.99769 18.1823 5.94572 18.1342C4.97293 18.0898 4.44463 17.9269 4.09305 17.79C3.62733 17.6087 3.29496 17.392 2.94583 17.0422C2.59671 16.6924 2.38046 16.3594 2.19946 15.8927C2.06283 15.5405 1.90032 15.0112 1.85593 14.0365C1.80792 12.9823 1.79774 12.6662 1.79774 9.9969C1.79774 7.32762 1.80792 7.01143 1.85593 5.9573C1.90032 4.98262 2.06283 4.45329 2.19946 4.10103C2.38046 3.6344 2.59671 3.30139 2.94583 2.95159C3.29496 2.60179 3.62733 2.38512 4.09305 2.20377C4.44463 2.06686 4.97293 1.90405 5.94572 1.85952C6.99781 1.81147 7.31338 1.80127 9.9775 1.80127Z" fill="white"/>
  </g>
  <path fill-rule="evenodd" clip-rule="evenodd" d="M9.97749 13.3291C8.14066 13.3291 6.65164 11.8372 6.65164 9.99685C6.65164 8.15646 8.14066 6.66455 9.97749 6.66455C11.8142 6.66455 13.3033 8.15646 13.3033 9.99685C13.3033 11.8372 11.8142 13.3291 9.97749 13.3291ZM9.9775 4.86328C7.14779 4.86328 4.85391 7.16161 4.85391 9.99681C4.85391 12.832 7.14779 15.1303 9.9775 15.1303C12.8072 15.1303 15.101 12.832 15.101 9.99681C15.101 7.16161 12.8072 4.86328 9.9775 4.86328Z" fill="white"/>
  <path fill-rule="evenodd" clip-rule="evenodd" d="M16.5008 4.66054C16.5008 5.32308 15.9647 5.86014 15.3035 5.86014C14.6422 5.86014 14.1062 5.32308 14.1062 4.66054C14.1062 3.998 14.6422 3.46094 15.3035 3.46094C15.9647 3.46094 16.5008 3.998 16.5008 4.66054Z" fill="white"/>
</svg>