<svg xmlns="http://www.w3.org/2000/svg" width="150" height="27" viewBox="0 0 150 27" fill="none">
  <ellipse cx="87.7083" cy="13.5006" rx="1.57056" ry="1.53015" fill="white"/>
  <path fill-rule="evenodd" clip-rule="evenodd" d="M95.5621 14.8707L94.5266 15.1314C94.8231 16.0994 95.0136 17.0953 95.0948 18.1024L96.1943 17.8418C96.0796 16.8343 95.8679 15.8396 95.5621 14.8707Z" fill="white"/>
  <path fill-rule="evenodd" clip-rule="evenodd" d="M99.443 17.8154C99.7106 17.0816 99.9928 15.971 100.277 15.0247L99.1095 14.7301C98.9618 15.6796 98.7444 16.6176 98.4589 17.5369L99.443 17.8154Z" fill="white"/>
  <path fill-rule="evenodd" clip-rule="evenodd" d="M105.533 10.1003H103.884C103.733 9.49109 103.513 8.90008 103.228 8.33801H102.577L101.932 8.51656C102.157 9.03331 102.352 9.56206 102.515 10.1003H100.16V11.2912H109.224V10.1003H106.902C107.133 9.66105 107.414 9.05935 107.648 8.57012L106.822 8.33801H106.191C106.02 8.94128 105.8 9.5305 105.533 10.1003Z" fill="white"/>
  <path fill-rule="evenodd" clip-rule="evenodd" d="M106.193 8.33575H106.823L106.233 8.1697C106.222 8.21434 106.21 8.27504 106.193 8.33575Z" fill="white"/>
  <path fill-rule="evenodd" clip-rule="evenodd" d="M103.14 8.17726L102.576 8.33259H103.226C103.196 8.27903 103.176 8.22725 103.14 8.17726Z" fill="white"/>
  <path fill-rule="evenodd" clip-rule="evenodd" d="M98.3338 18.4457C99.0232 18.3166 99.7262 18.185 100.429 18.0424L100.545 19.3225C98.3914 19.7725 96.1061 20.2296 94.3871 20.5724L94.07 19.1851C94.8049 19.0708 95.7066 18.9226 96.6907 18.744V14.125H94.2716V12.8198H96.6907V11.3343H95.089V10.7879L95.0728 10.8026C94.8297 11.0239 94.6016 11.2314 94.3559 11.4236C94.1927 10.8894 93.9875 10.3683 93.742 9.86485C95.1461 8.81939 96.292 7.48085 97.0957 5.94751L98.2796 6.4528C98.1623 6.68134 98.0468 6.89381 97.9295 7.10629C99.0474 7.74192 100.116 8.4936 100.75 9.11317L99.9821 10.338L99.7988 10.1595V11.3343H98.0468V12.8198H100.316V14.125H98.0468V18.4994C98.1422 18.4815 98.2379 18.4636 98.3338 18.4457ZM97.2401 8.21118C96.808 8.85603 96.3284 9.46947 95.8051 10.0467H99.6756C98.9238 9.36276 98.1084 8.7483 97.2401 8.21118Z" fill="white"/>
  <path fill-rule="evenodd" clip-rule="evenodd" d="M103.141 8.17762C103.17 8.22583 103.198 8.27939 103.227 8.33296H106.192C106.209 8.27225 106.223 8.2169 106.233 8.16691L106.823 8.33296H108.906V7.1599H105.608C105.4 6.72825 105.148 6.31793 104.856 5.93506L103.522 6.2618C103.672 6.53855 103.856 6.84922 104.022 7.15454H100.612V8.32939H102.577L103.141 8.17762Z" fill="white"/>
  <path fill-rule="evenodd" clip-rule="evenodd" d="M108.136 19.3488C108.086 19.5452 108.002 19.6595 107.919 19.6917C107.804 19.7415 107.679 19.7641 107.553 19.7577H107.036C106.924 19.7647 106.813 19.7359 106.719 19.6756C106.653 19.6274 106.635 19.4792 106.635 19.2506V16.751H108.489V12.0212H101.043V16.7545H102.478C102.295 18.5489 101.71 19.3828 99.1411 19.8881C99.4881 20.2314 99.7654 20.6354 99.9585 21.079C102.946 20.3451 103.714 19.1042 103.93 16.7545H105.191V19.1542C105.191 20.0845 105.291 20.3791 105.574 20.6076C105.856 20.8361 106.307 20.9504 106.673 20.9504H107.674C107.986 20.9548 108.296 20.9052 108.59 20.804C108.86 20.7037 109.073 20.4958 109.175 20.2327C109.292 19.972 109.358 19.3024 109.407 18.6489C108.959 18.5135 108.54 18.2979 108.172 18.0133C108.186 18.4588 108.173 18.9047 108.136 19.3488ZM102.361 13.0022H107.126V13.8949H102.361V13.0022ZM102.361 14.8303V15.7766H107.126V14.8303H102.361Z" fill="white"/>
  <path fill-rule="evenodd" clip-rule="evenodd" d="M117.164 15.9583L116.129 16.5135C116.647 17.3185 117.096 18.1642 117.47 19.0418L118.555 18.4061C118.177 17.5468 117.711 16.7267 117.164 15.9583V15.9583Z" fill="white"/>
  <path fill-rule="evenodd" clip-rule="evenodd" d="M110.638 19.0069C111.012 19.2184 111.369 19.4572 111.706 19.7211C112.403 18.6989 112.969 17.5974 113.392 16.4412L112.173 16.0841C111.829 17.1335 111.31 18.1209 110.638 19.0069H110.638Z" fill="white"/>
  <path fill-rule="evenodd" clip-rule="evenodd" d="M120.769 10.1648V8.00077L125.642 7.09018L124.424 5.97961L119.318 6.90628V11.961C119.318 14.8909 119.201 18.1441 117.883 20.0367C118.319 20.2776 118.718 20.5782 119.067 20.9294C120.551 18.8565 120.769 15.098 120.769 12.7484V11.5682" fill="white"/>
  <rect x="111.006" y="7.14197" width="7.34148" height="1.25698" fill="white"/>
  <path fill-rule="evenodd" clip-rule="evenodd" d="M137.923 17.7014H139.29L139.301 18.7941H137.932V20.5564H136.53V18.7941H130.482V17.7014H131.998V13.6216H130.864V12.5271H139.041V13.6216H137.923V17.7014ZM133.368 17.7004H136.522V16.9326H133.368V17.7004ZM136.522 16.0209H133.368V15.271H136.522V16.0209ZM133.368 14.3729H136.522V13.623H133.368V14.3729Z" fill="white"/>
  <path fill-rule="evenodd" clip-rule="evenodd" d="M135.604 6.01074V11.2172H140.392V19.3679C140.392 19.5804 140.326 19.6447 140.108 19.6625C139.89 19.6804 139.207 19.6786 138.556 19.6464C138.774 20.0686 138.925 20.5199 139.007 20.9856C140.059 20.9856 140.792 20.9534 141.292 20.7249C141.76 20.4963 141.91 20.1214 141.91 19.3697V6.01074H135.604ZM140.391 10.1554H137.079V9.12695H140.378L140.391 10.1554ZM137.079 8.1031H140.391L140.378 7.05859H137.079V8.1031Z" fill="white"/>
  <path fill-rule="evenodd" clip-rule="evenodd" d="M134.32 6.01074H128.129V21.0088H129.648V11.2172H134.322L134.32 6.01074ZM132.864 10.1536H129.644V9.12695H132.864V10.1536ZM129.644 8.10131H132.864V7.05859H129.644V8.10131Z" fill="white"/>
  <path fill-rule="evenodd" clip-rule="evenodd" d="M113.094 8.30139L111.882 8.70848L112.749 10.5029L113.992 10.0726L113.094 8.30139Z" fill="white"/>
  <path fill-rule="evenodd" clip-rule="evenodd" d="M118.617 10.3372V11.6102H115.546V13.1457H118.382V14.4366H115.546V20.9018H114.045V14.4366H110.841V13.1457H114.045V11.6102H110.74V10.3372H118.617Z" fill="white"/>
  <path fill-rule="evenodd" clip-rule="evenodd" d="M116.256 8.23596L115.045 10.5696L116.377 10.6017L117.556 8.66983L116.256 8.23596Z" fill="white"/>
  <path fill-rule="evenodd" clip-rule="evenodd" d="M114.113 7.14404C113.946 6.83337 113.763 6.52448 113.612 6.2513L114.946 5.92456C115.238 6.30743 115.49 6.71775 115.698 7.1494L114.113 7.14404Z" fill="white"/>
  <rect x="120.067" y="10.1431" width="5.87355" height="1.39625" fill="white"/>
  <rect x="122.679" y="11.1362" width="1.55956" height="9.79691" fill="white"/>
  <path fill-rule="evenodd" clip-rule="evenodd" d="M0 0V10.4486H2.05987V2.00331H147.942V10.4486H150V0H0Z" fill="white"/>
  <path fill-rule="evenodd" clip-rule="evenodd" d="M147.942 24.9968H2.05987V16.5515H0V27.0001H150V16.5515H147.942V24.9968Z" fill="white"/>
  <path fill-rule="evenodd" clip-rule="evenodd" d="M36.057 7.34924H29.5164V19.6565H32.2653V9.95247C32.2653 9.95247 33.3759 9.90783 35.1132 9.90783C36.9459 9.90783 37.8457 11.1041 37.8457 12.9074V19.6565H40.5946V12.2307C40.6148 9.36505 39.0442 7.3796 36.057 7.34924Z" fill="white"/>
  <path fill-rule="evenodd" clip-rule="evenodd" d="M43.3856 9.06922C44.567 7.85152 46.049 7.24268 47.8315 7.24268C49.7136 7.24268 51.1907 7.80689 52.2555 8.95852C53.3202 10.1102 53.8535 11.5975 53.8535 13.4704C53.8545 13.7496 53.8392 14.0286 53.8077 14.306H44.4302C44.4415 15.1804 44.8478 16.0054 45.5408 16.5611C46.2369 17.14 47.1252 17.4528 48.0404 17.4413C49.5908 17.4413 50.7032 16.8093 51.374 15.5684L53.366 16.8539C52.3233 18.7269 50.3092 19.7642 48.0863 19.7642C46.2573 19.7642 44.6831 19.175 43.4552 17.9788C42.2274 16.7825 41.6025 15.2755 41.6025 13.4901C41.5712 11.8443 42.2127 10.254 43.3856 9.06922ZM47.8305 9.54526C46.1858 9.5036 44.777 10.6846 44.5739 12.2753H51.0486C50.9569 10.5826 49.5898 9.54526 47.8305 9.54526Z" fill="white"/>
  <path fill-rule="evenodd" clip-rule="evenodd" d="M69.8106 7.34924L67.2174 16.0177H67.1698L64.3457 7.34924H61.5674L58.7654 15.9945H58.7434L56.1502 7.34924H53.2547L57.215 19.644H60.039L62.9108 11.0773H62.9566L65.8045 19.644H68.6762L72.6346 7.34924H69.8106Z" fill="white"/>
  <path fill-rule="evenodd" clip-rule="evenodd" d="M77.5637 12.2062C75.9657 11.8688 75.2711 11.4617 75.2711 10.6725C75.2711 10.019 76.1507 9.49944 77.0084 9.49944C78.1886 9.49944 79.0463 10.0351 79.6016 11.1242L81.7347 9.94938C80.8789 8.14426 79.3267 7.2426 77.1037 7.2426C75.9621 7.2196 74.8482 7.5866 73.9553 8.27996C73.0922 8.90366 72.5918 9.89535 72.612 10.9421C72.5984 11.7554 72.9129 12.5414 73.488 13.1311C74.1587 13.831 75.2015 14.3042 76.5668 14.5755C78.2564 14.913 79.1141 15.4558 79.1141 16.1539C79.1141 16.9663 78.2106 17.4841 77.1697 17.4841C75.8502 17.4841 74.8771 16.8306 74.2063 15.5433L72.053 16.7163C73.0023 18.7232 74.7158 19.7391 77.1697 19.7391C78.5588 19.7391 79.6932 19.4017 80.5509 18.7018C81.3907 18.0445 81.8694 17.0443 81.8465 15.995C81.8465 14.1238 80.3658 12.8151 77.5637 12.2062Z" fill="white"/>
  <path fill-rule="evenodd" clip-rule="evenodd" d="M22.5837 7.33423C20.7511 7.33423 19.5507 7.96629 18.2771 9.31968C17.5129 7.9895 16.2392 7.33423 14.4561 7.33423H8.09136V19.654H10.8403V12.9513C10.8403 11.1248 11.8831 9.88389 13.5489 9.88389C15.3815 9.88389 16.2117 11.0802 16.2117 12.8835V19.6505H18.9496V12.9299C18.9496 11.1034 19.9924 9.88389 21.6821 9.88389C23.5147 9.88389 24.321 11.0337 24.321 12.8621V19.6469H27.07V12.2068C27.0755 9.31968 25.5709 7.33423 22.5837 7.33423Z" fill="white"/>
</svg>