<svg xmlns="http://www.w3.org/2000/svg" width="24" height="24" viewBox="0 0 24 24" fill="none">
  <path fill-rule="evenodd" clip-rule="evenodd" d="M19.4286 7.14286C20.8487 7.14286 22 5.99159 22 4.57143C22 3.15127 20.8487 2 19.4286 2C18.0084 2 16.8571 3.15127 16.8571 4.57143C16.8571 5.99159 18.0084 7.14286 19.4286 7.14286ZM19.4286 9.14286C21.9533 9.14286 24 7.09616 24 4.57143C24 2.0467 21.9533 0 19.4286 0C16.9038 0 14.8571 2.0467 14.8571 4.57143C14.8571 5.07687 14.9392 5.56316 15.0906 6.0177L8.4023 9.50455C7.58643 8.25464 6.1754 7.42857 4.57143 7.42857C2.0467 7.42857 0 9.47527 0 12C0 14.5247 2.0467 16.5714 4.57143 16.5714C6.25072 16.5714 7.71853 15.666 8.51325 14.3166L15.0552 18.0936C14.9264 18.5159 14.8571 18.9641 14.8571 19.4286C14.8571 21.9533 16.9038 24 19.4286 24C21.9533 24 24 21.9533 24 19.4286C24 16.9038 21.9533 14.8571 19.4286 14.8571C17.9827 14.8571 16.6935 15.5284 15.8558 16.5764L9.09377 12.6723C9.12611 12.4529 9.14286 12.2284 9.14286 12C9.14286 11.6913 9.11225 11.3897 9.05391 11.0981L15.9296 7.51358C16.7682 8.50982 18.0245 9.14286 19.4286 9.14286ZM19.4286 22C20.8487 22 22 20.8487 22 19.4286C22 18.0084 20.8487 16.8571 19.4286 16.8571C18.0084 16.8571 16.8571 18.0084 16.8571 19.4286C16.8571 20.8487 18.0084 22 19.4286 22ZM7.14286 12C7.14286 13.4202 5.99159 14.5714 4.57143 14.5714C3.15127 14.5714 2 13.4202 2 12C2 10.5798 3.15127 9.42857 4.57143 9.42857C5.99159 9.42857 7.14286 10.5798 7.14286 12Z" fill="#003366"/>
</svg>