<svg xmlns="http://www.w3.org/2000/svg" width="25" height="20" viewBox="0 0 25 20" fill="none">
  <path d="M7.73521 20C17.0225 20 22.1014 12.307 22.1014 5.6338C22.1014 5.41408 22.0958 5.19718 22.0873 4.98028C23.0732 4.26761 23.9296 3.37746 24.6056 2.3662C23.7014 2.76901 22.7268 3.03944 21.707 3.16056C22.7493 2.53521 23.5493 1.54648 23.9268 0.369014C22.9521 0.946479 21.8704 1.36901 20.7211 1.59437C19.8 0.614084 18.4873 0 17.0366 0C14.2479 0 11.9859 2.26197 11.9859 5.04789C11.9859 5.44507 12.031 5.82817 12.1183 6.2C7.92113 5.98873 4.2 3.98028 1.71268 0.923944C1.27887 1.67042 1.02817 2.53803 1.02817 3.46197C1.02817 5.21408 1.91831 6.76056 3.27606 7.66479C2.44789 7.63944 1.67042 7.41127 0.988732 7.0338C0.988732 7.05352 0.988732 7.07606 0.988732 7.09859C0.988732 9.54366 2.72958 11.5859 5.03944 12.0479C4.61408 12.1634 4.16901 12.2254 3.70986 12.2254C3.38592 12.2254 3.06761 12.1944 2.76056 12.1352C3.40282 14.1408 5.2676 15.6 7.47606 15.6423C5.74648 16.9972 3.57183 17.8028 1.20563 17.8028C0.797183 17.8028 0.397183 17.7803 0 17.7324C2.2338 19.1634 4.88732 20 7.73803 20" fill="white"/>
</svg>